<?xml version="1.0" encoding="UTF-8" standalone="no"?>
<!-- Created with Inkscape (http://www.inkscape.org/) -->

<svg
   xmlns:dc="http://purl.org/dc/elements/1.1/"
   xmlns:cc="http://creativecommons.org/ns#"
   xmlns:rdf="http://www.w3.org/1999/02/22-rdf-syntax-ns#"
   xmlns:svg="http://www.w3.org/2000/svg"
   xmlns="http://www.w3.org/2000/svg"
   xmlns:xlink="http://www.w3.org/1999/xlink"
   xmlns:sodipodi="http://sodipodi.sourceforge.net/DTD/sodipodi-0.dtd"
   xmlns:inkscape="http://www.inkscape.org/namespaces/inkscape"
   width="100"
   height="100"
   id="svg2"
   version="1.1"
   inkscape:version="0.48.4 r9939"
   sodipodi:docname="logo-wikipraktika.svg">
  <defs
     id="defs4">
    <inkscape:path-effect
       effect="spiro"
       id="path-effect3870"
       is_visible="true" />
    <inkscape:path-effect
       effect="spiro"
       id="path-effect3866"
       is_visible="true" />
    <inkscape:path-effect
       effect="spiro"
       id="path-effect3850"
       is_visible="true" />
    <linearGradient
       id="linearGradient3784">
      <stop
         style="stop-color:#524b4b;stop-opacity:1;"
         offset="0"
         id="stop3786" />
      <stop
         style="stop-color:#b3b3b3;stop-opacity:1"
         offset="1"
         id="stop3788" />
    </linearGradient>
    <radialGradient
       inkscape:collect="always"
       xlink:href="#linearGradient3784"
       id="radialGradient3790"
       cx="46.478256"
       cy="44.751083"
       fx="46.478256"
       fy="44.751083"
       r="39.774757"
       gradientUnits="userSpaceOnUse"
       gradientTransform="matrix(0.68354438,0.97721518,-0.81943115,0.57317764,52.72289,-19.007069)" />
  </defs>
  <sodipodi:namedview
     id="base"
     pagecolor="#ffffff"
     bordercolor="#666666"
     borderopacity="1.0"
     inkscape:pageopacity="0.0"
     inkscape:pageshadow="2"
     inkscape:zoom="3.959798"
     inkscape:cx="-11.185548"
     inkscape:cy="30.72859"
     inkscape:document-units="px"
     inkscape:current-layer="layer1"
     showgrid="false"
     inkscape:snap-bbox="false"
     inkscape:window-width="1869"
     inkscape:window-height="1056"
     inkscape:window-x="51"
     inkscape:window-y="24"
     inkscape:window-maximized="1" />
  <metadata
     id="metadata7">
    <rdf:RDF>
      <cc:Work
         rdf:about="">
        <dc:format>image/svg+xml</dc:format>
        <dc:type
           rdf:resource="http://purl.org/dc/dcmitype/StillImage" />
        <dc:title></dc:title>
      </cc:Work>
    </rdf:RDF>
  </metadata>
  <g
     inkscape:label="Layer 1"
     inkscape:groupmode="layer"
     id="layer1"
     transform="translate(0,-952.36218)">
    <path
       sodipodi:type="arc"
       style="color:#000000;fill:url(#radialGradient3790);fill-opacity:1;fill-rule:nonzero;stroke:none;stroke-width:15.36585331000000032;marker:none;visibility:visible;display:inline;overflow:visible;enable-background:accumulate"
       id="path2996"
       sodipodi:cx="53.159279"
       sodipodi:cy="58.204937"
       sodipodi:rx="39.774757"
       sodipodi:ry="39.774757"
       d="m 92.934036,58.204937 c 0,21.966992 -17.807765,39.774757 -39.774757,39.774757 -21.966992,0 -39.774758,-17.807765 -39.774758,-39.774757 0,-21.966992 17.807766,-39.774757 39.774758,-39.774757 21.966992,0 39.774757,17.807765 39.774757,39.774757 z"
       transform="matrix(1.2539682,0,0,1.2539682,-16.531226,929.49875)" />
    <path
       style="fill:none;stroke:#b2a6a6;stroke-width:1px;stroke-linecap:butt;stroke-linejoin:miter;stroke-opacity:1"
       d="M 2.2728438,1014.734 C 62.124381,1020.2898 97.60599,988.5963 97.60599,988.5963"
       id="path3818"
       inkscape:connector-curvature="0"
       sodipodi:nodetypes="cc" />
    <path
       style="fill:none;stroke:#b2a6a6;stroke-width:1px;stroke-linecap:butt;stroke-linejoin:miter;stroke-opacity:1"
       d="m 12.374369,1034.1794 c 27.182541,4.7895 62.801496,-2.943 85.862966,-21.7182"
       id="path3820"
       inkscape:connector-curvature="0"
       sodipodi:nodetypes="cc" />
    <path
       style="fill:none;stroke:#b2a6a6;stroke-width:1px;stroke-linecap:butt;stroke-linejoin:miter;stroke-opacity:1"
       d="M 1.7677668,993.26826 C 30.421495,996.65771 63.826877,985.9867 89.777307,973.31774"
       id="path3844"
       inkscape:connector-curvature="0"
       sodipodi:nodetypes="cc" />
    <path
       style="fill:none;stroke:#b2a6a6;stroke-width:1px;stroke-linecap:butt;stroke-linejoin:miter;stroke-opacity:1"
       d="M 7.8286815,976.60256 C 45.961941,974.07719 77.529208,961.1977 77.529208,961.1977"
       id="path3818-4"
       inkscape:connector-curvature="0"
       sodipodi:nodetypes="cc" />
    <path
       style="fill:none;stroke:#b2a6a6;stroke-width:1px;stroke-linecap:butt;stroke-linejoin:miter;stroke-opacity:1"
       d="m 39.395948,954.63175 c 0.378807,51.89655 24.748738,95.08065 24.748738,95.08065"
       id="path3818-6"
       inkscape:connector-curvature="0"
       sodipodi:nodetypes="cc" />
    <path
       style="fill:none;stroke:#b2a6a6;stroke-width:1px;stroke-linecap:butt;stroke-linejoin:miter;stroke-opacity:1"
       d="m 49.750012,953.24101 c 14.113949,15.41248 36.23206,58.70999 36.491762,82.70629"
       id="path3818-6-2"
       inkscape:connector-curvature="0"
       sodipodi:nodetypes="cc" />
    <path
       style="fill:none;stroke:#b2a6a6;stroke-width:1px;stroke-linecap:butt;stroke-linejoin:miter;stroke-opacity:1"
       d="m 29.420691,957.59953 c -25.8504649,36.86181 -7.530373,84.56137 7.954953,92.80777"
       id="path3820-1"
       inkscape:connector-curvature="0"
       sodipodi:nodetypes="cc" />
    <g
       transform="translate(-0.75761441,952.10964)"
       style="font-size:40px;font-style:normal;font-weight:normal;line-height:125%;letter-spacing:0px;word-spacing:0px;fill:#ffffff;fill-opacity:1;stroke:none;font-family:Sans"
       id="flowRoot3792">
      <path
         d="m 20.730469,29.619097 3.144531,0 7.910156,20.273437 8.222656,-20.566406 8.261719,20.566406 7.8125,-20.273437 3.28125,0 L 48.230469,59.072222 40.085937,38.662065 31.921875,59.072222 20.730469,29.619097"
         style="font-variant:normal;font-weight:bold;font-stretch:normal;text-align:center;text-anchor:middle;fill:#ffffff;font-family:Sawasdee;-inkscape-font-specification:Sawasdee Bold"
         id="path3861" />
      <path
         d="m 62.566406,58.779253 0,-29.160156 10.839844,0 c 2.239567,2.9e-5 4.140607,0.794299 5.703125,2.382812 1.562479,1.575546 2.343728,3.476586 2.34375,5.703125 -2.2e-5,2.213561 -0.77476,4.10809 -2.324219,5.683594 -1.549497,1.575535 -3.424495,2.363294 -5.625,2.363281 l -7.832031,0 0,13.027344 -3.105469,0 m 3.105469,-16.09375 7.832031,0 c 1.315089,1.6e-5 2.447901,-0.481754 3.398438,-1.445313 0.963523,-0.976544 1.445294,-2.154928 1.445312,-3.535156 -1.8e-5,-1.406227 -0.481789,-2.604143 -1.445312,-3.59375 -0.963558,-0.989558 -2.128922,-1.484349 -3.496094,-1.484375 l -7.734375,0 0,10.058594"
         style="font-variant:normal;font-weight:bold;font-stretch:normal;text-align:center;text-anchor:middle;fill:#ffffff;font-family:Sawasdee;-inkscape-font-specification:Sawasdee Bold"
         id="path3863" />
    </g>
    <g
       transform="translate(0,952.36218)"
       style="font-size:14px;font-style:normal;font-weight:normal;line-height:125%;letter-spacing:0px;word-spacing:0px;fill:#ffffff;fill-opacity:1;stroke:none;font-family:Sans"
       id="flowRoot3806">
      <path
         d="m 14.219727,62.138248 0.608398,0 3.000977,8.442383 2.939453,-8.56543 2.932617,8.56543 2.973633,-8.442383 0.65625,0 -3.629883,10.322266 -2.918945,-8.517579 -2.925782,8.517579 -3.636718,-10.322266"
         style="font-variant:normal;font-stretch:normal;text-align:center;text-anchor:middle;fill:#ffffff;font-family:Sawasdee;-inkscape-font-specification:Sawasdee"
         id="path3866" />
      <path
         d="m 28.376953,63.772037 c -1e-6,-0.150382 0.05241,-0.280265 0.157227,-0.389648 0.109374,-0.109366 0.241535,-0.164054 0.396484,-0.164063 0.150389,9e-6 0.277993,0.0547 0.382813,0.164063 0.109373,0.109383 0.16406,0.239266 0.164062,0.389648 -2e-6,0.154956 -0.05241,0.287118 -0.157227,0.396484 -0.104819,0.104826 -0.234702,0.157235 -0.389648,0.157227 -0.154949,8e-6 -0.28711,-0.0524 -0.396484,-0.157227 -0.104819,-0.109366 -0.157228,-0.241528 -0.157227,-0.396484 m 0.861328,8.572266 -0.615234,0 0,-6.931641 0.615234,0 0,6.931641"
         style="font-variant:normal;font-stretch:normal;text-align:center;text-anchor:middle;fill:#ffffff;font-family:Sawasdee;-inkscape-font-specification:Sawasdee"
         id="path3868" />
      <path
         d="m 32.136719,72.344303 -0.615235,0 0,-10.206055 0.615235,0 0,6.056641 3.069336,-2.782227 0.922851,0 -2.925781,2.652344 3.670898,4.279297 -0.792968,0 -3.322266,-3.869141 -0.62207,0.553711 0,3.31543"
         style="font-variant:normal;font-stretch:normal;text-align:center;text-anchor:middle;fill:#ffffff;font-family:Sawasdee;-inkscape-font-specification:Sawasdee"
         id="path3870" />
      <path
         d="m 37.783203,63.772037 c -10e-7,-0.150382 0.05241,-0.280265 0.157227,-0.389648 0.109374,-0.109366 0.241535,-0.164054 0.396484,-0.164063 0.150389,9e-6 0.277993,0.0547 0.382813,0.164063 0.109373,0.109383 0.16406,0.239266 0.164062,0.389648 -2e-6,0.154956 -0.05241,0.287118 -0.157227,0.396484 -0.104819,0.104826 -0.234702,0.157235 -0.389648,0.157227 -0.154949,8e-6 -0.28711,-0.0524 -0.396484,-0.157227 -0.104819,-0.109366 -0.157228,-0.241528 -0.157227,-0.396484 m 0.861328,8.572266 -0.615234,0 0,-6.931641 0.615234,0 0,6.931641"
         style="font-variant:normal;font-stretch:normal;text-align:center;text-anchor:middle;fill:#ffffff;font-family:Sawasdee;-inkscape-font-specification:Sawasdee"
         id="path3872" />
      <path
         d="m 40.756836,65.412662 0.65625,0 c 0.08659,0.300788 0.129881,0.606126 0.129883,0.916016 l 0,0.861328 c 0.173175,-0.47851 0.514971,-0.911453 1.02539,-1.298828 0.510414,-0.391921 1.025387,-0.587884 1.544922,-0.587891 0.578771,7e-6 1.109695,0.164069 1.592774,0.492187 0.483066,0.323574 0.861321,0.758795 1.134765,1.305665 0.277988,0.546879 0.416985,1.137048 0.416992,1.770507 -7e-6,0.638024 -0.139004,1.23275 -0.416992,1.78418 -0.273444,0.546876 -0.651699,0.982097 -1.134765,1.305664 -0.483079,0.323568 -1.014003,0.485352 -1.592774,0.485352 -0.528649,0 -1.04818,-0.186849 -1.558594,-0.560547 -0.505861,-0.378255 -0.8431,-0.818033 -1.011718,-1.319336 l 0,4.839844 -0.615235,0 0,-9.078125 c -10e-7,-0.391921 -0.05697,-0.697259 -0.170898,-0.916016 m 1.544922,1.367187 c -0.505862,0.574224 -0.758791,1.271489 -0.758789,2.091797 -2e-6,0.820315 0.252927,1.519859 0.758789,2.098633 0.505856,0.578777 1.109697,0.868165 1.811523,0.868164 0.692704,10e-7 1.294265,-0.289387 1.804688,-0.868164 0.51041,-0.583331 0.765618,-1.282875 0.765625,-2.098633 -7e-6,-0.820308 -0.255215,-1.517573 -0.765625,-2.091797 -0.510423,-0.574212 -1.111984,-0.861321 -1.804688,-0.861328 -0.701826,7e-6 -1.305667,0.287116 -1.811523,0.861328"
         style="font-variant:normal;font-stretch:normal;text-align:center;text-anchor:middle;fill:#ffffff;font-family:Sawasdee;-inkscape-font-specification:Sawasdee"
         id="path3874" />
      <path
         d="m 49.069336,65.412662 0.65625,0 c 0.08659,0.300788 0.129881,0.606126 0.129883,0.916016 l 0,0.861328 c 0.104816,-0.350906 0.34863,-0.715489 0.731445,-1.09375 0.38281,-0.378249 0.7679,-0.642572 1.155273,-0.792969 l 0.683594,0.485352 c -0.401045,6e-6 -0.802087,0.141282 -1.203125,0.423828 -0.396487,0.282558 -0.724612,0.658534 -0.984375,1.127929 -0.25521,0.464849 -0.382814,0.945642 -0.382812,1.442383 l 0,3.561524 -0.615235,0 0,-6.015625 c -10e-7,-0.391921 -0.05697,-0.697259 -0.170898,-0.916016"
         style="font-variant:normal;font-stretch:normal;text-align:center;text-anchor:middle;fill:#ffffff;font-family:Sawasdee;-inkscape-font-specification:Sawasdee"
         id="path3876" />
      <path
         d="m 58.810547,72.344303 -0.65625,0 C 58.07226,72.084537 58.031244,71.779199 58.03125,71.428287 l 0,-0.540039 c -0.32813,0.45573 -0.722336,0.831706 -1.182617,1.12793 -0.455733,0.296224 -0.938806,0.444335 -1.449219,0.444336 -0.369143,-10e-7 -0.699546,-0.05697 -0.991211,-0.170899 -0.287111,-0.118489 -0.514975,-0.273437 -0.683594,-0.464844 -0.16862,-0.191405 -0.296224,-0.394204 -0.382812,-0.608398 -0.08659,-0.218749 -0.129884,-0.439777 -0.129883,-0.663086 -10e-7,-0.23242 0.03418,-0.446612 0.102539,-0.642578 0.07292,-0.195961 0.164062,-0.362302 0.273438,-0.499024 0.113931,-0.141273 0.262043,-0.266598 0.444336,-0.375976 0.186847,-0.113929 0.364581,-0.205075 0.533203,-0.273438 0.173175,-0.07291 0.387367,-0.134436 0.642578,-0.18457 0.255205,-0.05468 0.476234,-0.09342 0.663086,-0.116211 0.186845,-0.02734 0.419267,-0.04785 0.697265,-0.06152 0.277991,-0.01367 0.496741,-0.0205 0.65625,-0.02051 0.164058,-0.0046 0.371415,-0.0068 0.622071,-0.0068 l 0.18457,0 c -0.02279,-0.751949 -0.246099,-1.351232 -0.669922,-1.797852 -0.419275,-0.446608 -0.904626,-0.669915 -1.456055,-0.669922 -0.32357,7e-6 -0.640302,0.08432 -0.950195,0.25293 -0.305341,0.168626 -0.571942,0.414719 -0.799805,0.738281 l -0.485351,-0.321289 c 0.277993,-0.428379 0.612954,-0.749668 1.004883,-0.963867 0.391924,-0.214186 0.80208,-0.321282 1.230468,-0.321289 0.346351,7e-6 0.679033,0.07064 0.998047,0.211914 0.323563,0.136726 0.612951,0.332689 0.868164,0.587891 0.255203,0.250657 0.460281,0.574224 0.615235,0.970703 0.159499,0.396489 0.243809,0.833989 0.252929,1.3125 l 0,3.055664 c -6e-6,0.396485 0.05696,0.701823 0.170899,0.916016 m -3.411133,-0.492188 c 0.524085,10e-7 1.032223,-0.175455 1.524414,-0.526367 0.492183,-0.35091 0.861323,-0.751951 1.107422,-1.203125 l 0,-1.3125 c -0.214198,0.0046 -0.394211,0.0091 -0.540039,0.01367 -0.141281,0.0046 -0.337244,0.01595 -0.587891,0.03418 -0.246098,0.01368 -0.455733,0.0319 -0.628906,0.05469 -0.173181,0.01823 -0.37598,0.05013 -0.608398,0.0957 -0.227868,0.04558 -0.421553,0.09799 -0.581055,0.157227 -0.159508,0.05469 -0.325849,0.127607 -0.499024,0.21875 -0.168621,0.08659 -0.30534,0.184573 -0.410156,0.293945 -0.104819,0.10482 -0.191407,0.232424 -0.259765,0.382812 -0.0638,0.150393 -0.09571,0.314456 -0.0957,0.492188 -1e-6,0.328126 0.136718,0.626629 0.410157,0.895508 0.273435,0.268881 0.663083,0.403321 1.168945,0.40332"
         style="font-variant:normal;font-stretch:normal;text-align:center;text-anchor:middle;fill:#ffffff;font-family:Sawasdee;-inkscape-font-specification:Sawasdee"
         id="path3878" />
      <path
         d="m 61.53125,72.344303 -0.615234,0 0,-10.206055 0.615234,0 0,6.056641 3.069336,-2.782227 0.922851,0 -2.925781,2.652344 3.670899,4.279297 -0.792969,0 -3.322266,-3.869141 -0.62207,0.553711 0,3.31543"
         style="font-variant:normal;font-stretch:normal;text-align:center;text-anchor:middle;fill:#ffffff;font-family:Sawasdee;-inkscape-font-specification:Sawasdee"
         id="path3880" />
      <path
         d="m 68.039062,72.344303 -0.615234,0 0,-6.323243 -0.608398,0 0,-0.608398 0.608398,0 0,-1.640625 0.615234,0 0,1.640625 1.914063,0 -0.205078,0.608398 -1.708985,0 0,6.323243"
         style="font-variant:normal;font-stretch:normal;text-align:center;text-anchor:middle;fill:#ffffff;font-family:Sawasdee;-inkscape-font-specification:Sawasdee"
         id="path3882" />
      <path
         d="m 70.951172,63.772037 c -10e-7,-0.150382 0.05241,-0.280265 0.157226,-0.389648 0.109374,-0.109366 0.241536,-0.164054 0.396485,-0.164063 0.150389,9e-6 0.277993,0.0547 0.382812,0.164063 0.109373,0.109383 0.164061,0.239266 0.164063,0.389648 -2e-6,0.154956 -0.05241,0.287118 -0.157227,0.396484 -0.104819,0.104826 -0.234702,0.157235 -0.389648,0.157227 -0.154949,8e-6 -0.287111,-0.0524 -0.396485,-0.157227 -0.104818,-0.109366 -0.157227,-0.241528 -0.157226,-0.396484 m 0.861328,8.572266 -0.615234,0 0,-6.931641 0.615234,0 0,6.931641"
         style="font-variant:normal;font-stretch:normal;text-align:center;text-anchor:middle;fill:#ffffff;font-family:Sawasdee;-inkscape-font-specification:Sawasdee"
         id="path3884" />
      <path
         d="m 74.710937,72.344303 -0.615234,0 0,-10.206055 0.615234,0 0,6.056641 3.069336,-2.782227 0.922852,0 -2.925781,2.652344 3.670898,4.279297 -0.792969,0 -3.322265,-3.869141 -0.622071,0.553711 0,3.31543"
         style="font-variant:normal;font-stretch:normal;text-align:center;text-anchor:middle;fill:#ffffff;font-family:Sawasdee;-inkscape-font-specification:Sawasdee"
         id="path3886" />
      <path
         d="m 85.744141,72.344303 -0.65625,0 c -0.08204,-0.259766 -0.123053,-0.565104 -0.123047,-0.916016 l 0,-0.540039 c -0.32813,0.45573 -0.722336,0.831706 -1.182617,1.12793 -0.455733,0.296224 -0.938806,0.444335 -1.449219,0.444336 -0.369143,-10e-7 -0.699547,-0.05697 -0.991211,-0.170899 -0.287111,-0.118489 -0.514975,-0.273437 -0.683594,-0.464844 -0.168621,-0.191405 -0.296225,-0.394204 -0.382812,-0.608398 -0.08659,-0.218749 -0.129884,-0.439777 -0.129883,-0.663086 -1e-6,-0.23242 0.03418,-0.446612 0.102539,-0.642578 0.07292,-0.195961 0.164061,-0.362302 0.273437,-0.499024 0.113931,-0.141273 0.262043,-0.266598 0.444336,-0.375976 0.186848,-0.113929 0.364582,-0.205075 0.533203,-0.273438 0.173175,-0.07291 0.387368,-0.134436 0.642579,-0.18457 0.255205,-0.05468 0.476233,-0.09342 0.663085,-0.116211 0.186846,-0.02734 0.419268,-0.04785 0.697266,-0.06152 0.277991,-0.01367 0.49674,-0.0205 0.65625,-0.02051 0.164058,-0.0046 0.371414,-0.0068 0.62207,-0.0068 l 0.184571,0 c -0.02279,-0.751949 -0.246099,-1.351232 -0.669922,-1.797852 -0.419275,-0.446608 -0.904626,-0.669915 -1.456055,-0.669922 -0.323571,7e-6 -0.640302,0.08432 -0.950195,0.25293 -0.305341,0.168626 -0.571942,0.414719 -0.799805,0.738281 l -0.485351,-0.321289 c 0.277993,-0.428379 0.612954,-0.749668 1.004882,-0.963867 0.391925,-0.214186 0.802081,-0.321282 1.230469,-0.321289 0.346351,7e-6 0.679033,0.07064 0.998047,0.211914 0.323563,0.136726 0.612951,0.332689 0.868164,0.587891 0.255203,0.250657 0.460281,0.574224 0.615234,0.970703 0.1595,0.396489 0.243809,0.833989 0.25293,1.3125 l 0,3.055664 c -6e-6,0.396485 0.05696,0.701823 0.170899,0.916016 m -3.411133,-0.492188 c 0.524085,10e-7 1.032222,-0.175455 1.524414,-0.526367 0.492182,-0.35091 0.861323,-0.751951 1.107422,-1.203125 l 0,-1.3125 c -0.214198,0.0046 -0.394211,0.0091 -0.540039,0.01367 -0.141281,0.0046 -0.337245,0.01595 -0.587891,0.03418 -0.246098,0.01368 -0.455733,0.0319 -0.628906,0.05469 -0.173181,0.01823 -0.37598,0.05013 -0.608399,0.0957 -0.227867,0.04558 -0.421552,0.09799 -0.581054,0.157227 -0.159508,0.05469 -0.325849,0.127607 -0.499024,0.21875 -0.168621,0.08659 -0.30534,0.184573 -0.410156,0.293945 -0.104819,0.10482 -0.191408,0.232424 -0.259766,0.382812 -0.0638,0.150393 -0.0957,0.314456 -0.0957,0.492188 -10e-7,0.328126 0.136718,0.626629 0.410156,0.895508 0.273436,0.268881 0.663084,0.403321 1.168946,0.40332"
         style="font-variant:normal;font-stretch:normal;text-align:center;text-anchor:middle;fill:#ffffff;font-family:Sawasdee;-inkscape-font-specification:Sawasdee"
         id="path3888" />
    </g>
  </g>
</svg>
